<svg width="20" height="20" viewBox="0 0 20 20" fill="none" xmlns="http://www.w3.org/2000/svg">
<path d="M9.94975 13.5L5 8.55025L6.41421 7.13604L9.94975 10.6716L13.4853 7.13604L14.8995 8.55025L9.94975 13.5Z" fill="#4680FF"/>
<path fill-rule="evenodd" clip-rule="evenodd" d="M10 0C15.5228 7.24234e-07 20 4.47715 20 10C20 15.5228 15.5228 20 10 20C4.47715 20 -7.24234e-07 15.5228 0 10C7.24234e-07 4.47715 4.47715 -7.24234e-07 10 0ZM10 2C14.4183 2 18 5.58172 18 10C18 14.4183 14.4183 18 10 18C5.58172 18 2 14.4183 2 10C2 5.58172 5.58172 2 10 2Z" fill="#4680FF"/>
</svg>
