<svg width="18" height="18" viewBox="0 0 18 18" fill="none" xmlns="http://www.w3.org/2000/svg">
<path d="M13.707 4.85349L8.00003 10.5605L4.29303 6.85349L5.70703 5.43948L8.00003 7.73248L12.293 3.43948L13.707 4.85349Z" fill="#4680FF"/>
<path fill-rule="evenodd" clip-rule="evenodd" d="M2 0H16C17.103 0 18 0.897 18 2V12C18 13.103 17.103 14 16 14H5.9997C5.56694 14 5.14585 14.1404 4.79965 14.4L0 18V2C0 0.897 0.897 0 2 0ZM5.3336 12H16V2H2V14L4.1337 12.3999C4.47987 12.1403 4.9009 12 5.3336 12Z" fill="#4680FF"/>
</svg>
